<svg width="39" height="39" version="1.1" viewBox="0 0 10.319 10.319" xml:space="preserve" xmlns="http://www.w3.org/2000/svg" xmlns:xlink="http://www.w3.org/1999/xlink"><defs><linearGradient id="linearGradient7814" x1=".011846" x2="10.337" y1="5.1556" y2="5.1556" gradientUnits="userSpaceOnUse"><stop style="stop-color:#cd2288" offset="0"/><stop style="stop-color:#8700ff" offset="1"/></linearGradient></defs><g><path d="m4.5898 10.302c-2.1497-.26195-3.9019-1.7998-4.4255-3.8841-.20294-.80784-.2033-1.7036-.000986-2.5017.43853-1.7299 1.7103-3.1032 3.384-3.6539 1.3116-.43161 2.6764-.3356 3.923.276.75718.37147 1.4323.9522 1.9474 1.6751.98736 1.3858 1.1993 3.3116.53969 4.905-.14309.34568-.34316.7192-.51722.96563-.53742.7609-1.1724 1.3078-1.989 1.7133-.48712.24183-.89226.36751-1.5933.49428-.14006.0253-1.0823.0331-1.2681.0104zm1.3005-.29248c1.5943-.24011 2.9554-1.2343 3.6798-2.6876.33415-.67042.4944-1.3703.49489-2.1615.000533-.79832-.15221-1.4514-.50792-2.1721-.25488-.51647-.55886-.93318-.97107-1.3312-.79239-.76506-1.7187-1.2092-2.8296-1.3567-.41106-.0545-1.1416-.0219-1.5912.0712-.87977.18216-1.709.62139-2.3674 1.2539-1.0577 1.0162-1.5902 2.3754-1.5043 3.8401.03839.6547.19795 1.2646.48396 1.8498.63925 1.3081 1.8411 2.2706 3.2605 2.6112.58923.14138 1.2631.17148 1.8524.0828zm-1.2322-1.9259c-.45146-.0616-1.0164-.23085-1.4861-.44512l-.18496-.0844.01659-.21646c.07972-1.0404.57648-1.8747 1.3395-2.2496.27463-.13492.50352-.18598.83371-.18598.30844 0 .52629.0446.78034.1598.7449.33774 1.2672 1.1516 1.3782 2.1476.04038.36209.05091.33271-.1567.4368-.75042.37624-1.7268.54563-2.5207.43727zm.98342-.39817c.28125-.0371.49639-.0824.72124-.15168.18741-.0578.53484-.19057.56082-.21434.02909-.0266-.02667-.37116-.09667-.59743-.15117-.48854-.39231-.8551-.7298-1.1093-.20166-.15191-.3185-.2096-.53841-.26585-.46335-.11851-.97346-.007-1.3494.29515-.39594.31813-.71751.94658-.78249 1.5292l-.01538.13789.09671.0413c.31222.13333.81134.27516 1.1287.32073.09686.0139.20254.0292.23482.0339.14751.0216.53142.0119.7699-.0195zm-.7699-3.039c-.31648-.10232-.5373-.29175-.67198-.57649-.26661-.56361-.03824-1.2224.51799-1.4943.1459-.0714.18782-.0806.3992-.0884.19586-.007.26224 9e-5.38882.0425.30764.10306.50877.28339.65375.58616.07193.15021.08507.20414.0937.38477.01578.33-.04333.52917-.23205.782-.24512.32839-.75732.49045-1.1494.36369zm.50892-.39004c.14222-.0422.31178-.18462.40139-.33705.05779-.0983.06421-.13154.06421-.33231 0-.20601-.0056-.23297-.07277-.35223-.08103-.14383-.24714-.28463-.38424-.32571-.11445-.0343-.32433-.0339-.42595.00071-.19766.0673-.3778.25064-.44303.45074-.01622.0497-.02911.15741-.02864.23919.0017.29764.18258.55302.45945.64871.14852.0513.27565.0537.42958.008z" style="fill:url(#linearGradient7814)"/></g></svg>
