<svg width="100%" height="auto" viewBox="0 0 100 18" fill="none" xmlns="http://www.w3.org/2000/svg">
    <path d="M0.846352 15.2781L0.845413 15.279C0.616371 15.5093 0.499954 15.8117 0.499954 16.1143C0.499954 16.4078 0.608688 16.7206 0.860741 16.9553C1.32108 17.4114 2.06723 17.4044 2.52412 16.9487L2.5246 16.9483L14.0249 5.44723L24.8977 16.3212C24.9315 16.3559 24.9654 16.3828 24.9941 16.4029C25.0085 16.4207 25.0252 16.4392 25.0444 16.4577C25.5049 16.9128 26.25 16.9083 26.7086 16.4543L26.7104 16.4524L38.2096 4.94947L49.0907 15.8269L49.091 15.8271C49.3154 16.0511 49.6071 16.1623 49.895 16.1696C50.2364 16.2239 50.6226 16.1404 50.9134 15.8494C50.9135 15.8493 50.9136 15.8493 50.9136 15.8492L62.4157 4.34688L73.2927 15.2225C73.2931 15.2229 73.2935 15.2233 73.2939 15.2237C73.3276 15.2575 73.3614 15.2838 73.3891 15.303C73.4019 15.3189 73.4166 15.3357 73.4333 15.3524L73.4335 15.3526C73.8944 15.8131 74.6424 15.8124 75.1034 15.3531L75.104 15.3524L86.6063 3.84944L97.4831 14.7267L97.4834 14.7271C97.9442 15.187 98.6927 15.1881 99.1536 14.727C99.6158 14.2662 99.6152 13.5166 99.1536 13.0559C99.1535 13.0558 99.1534 13.0557 99.1533 13.0556L87.441 1.34279L87.441 1.34278C86.9802 0.882025 86.231 0.882259 85.7702 1.34262L85.7701 1.34279L74.2605 12.8526L63.2488 1.84213C63.2488 1.84207 63.2487 1.84201 63.2487 1.84195C62.7876 1.38064 62.0393 1.38163 61.5782 1.84148L61.5777 1.84197L50.0108 13.4089L39.0469 2.44167L39.0456 2.44032C38.5854 1.98349 37.8358 1.98117 37.3759 2.44194L25.8659 13.9514L14.856 2.9408L0.846352 15.2781ZM0.846352 15.2781L13.1822 2.9408M0.846352 15.2781L13.1822 2.9408M13.1822 2.9408C13.1825 2.94044 13.1829 2.94008 13.1832 2.93971M13.1822 2.9408L13.1832 2.93971M13.1832 2.93971C13.6422 2.47818 14.3955 2.47806 14.8546 2.93935L13.1832 2.93971ZM25.0782 16.4546L25.0781 16.4545L25.0782 16.4546Z"
          fill="#55287D" stroke="#55287D"/>
</svg>
