<svg width="106" height="82" viewBox="0 0 106 82" fill="none" xmlns="http://www.w3.org/2000/svg">
<path d="M101.473 29.0268H101.973V28.5268V6.11293C101.973 4.70761 100.819 3.57529 99.4108 3.57529H6.1874C4.77977 3.57529 3.62493 4.70751 3.62493 6.11273V28.5268V29.0268H4.12493H101.473ZM22.3615 32.6019V32.1019H21.8615H13.611H13.111V32.6019V77.4304V77.9304H13.611H25.9864H26.4864V77.4304V57.0536V56.5536H25.9864H23.924C23.0553 56.5536 22.3615 55.8595 22.3615 55.016V32.6019ZM30.1114 56.5534H29.6114V57.0534V77.4304V77.9304H30.1114H42.4868H42.9868V77.4304V57.0534V56.5534H42.4868H40.4243C39.5556 56.5534 38.8619 55.8593 38.8619 55.0158V32.6019V32.1019H38.3619H34.2363H33.7363V32.6019V55.0158C33.7363 55.8593 33.0425 56.5534 32.1738 56.5534H30.1114ZM46.6117 56.5534H46.1117V57.0534V77.4304V77.9304H46.6117H58.9869H59.4869V77.4304V32.6019V32.1019H58.9869H50.7366H50.2366V32.6019V55.0158C50.2366 55.8593 49.5429 56.5534 48.6742 56.5534H46.6117ZM63.1116 32.1019H62.6116V32.6019V77.4304V77.9304H63.1116H75.487H75.987V77.4304V57.0534V56.5534H75.487H73.4246C72.5561 56.5534 71.8621 55.8593 71.8621 55.0158V32.6019V32.1019H71.3621H63.1116ZM79.612 56.5534H79.112V57.0534V77.4304V77.9304H79.612H91.9872H92.4872V77.4304V32.6019V32.1019H91.9872H83.7369H83.2369V32.6019V55.0158C83.2369 55.8593 82.543 56.5534 81.6744 56.5534H79.612ZM4.12493 32.1019H3.62493V32.6019V75.3928C3.62493 76.7982 4.77973 77.9304 6.1874 77.9304H9.4861H9.9861V77.4304V32.6019V32.1019H9.4861H4.12493ZM95.6123 77.4304V77.9304H96.1123H99.411C100.819 77.9304 101.973 76.7981 101.973 75.3928V32.6019V32.1019H101.473H96.1123H95.6123V32.6019V77.4304ZM6.1874 0.5H99.4108C102.552 0.5 105.098 3.0239 105.098 6.11293V75.3928C105.098 78.4816 102.552 81.0057 99.4108 81.0057H6.1874C3.04608 81.0057 0.5 78.4816 0.5 75.3928V6.11293C0.5 3.02409 3.04608 0.5 6.1874 0.5Z" fill="url(#paint0_linear_59_863)" stroke="white"/>
<defs>
<linearGradient id="paint0_linear_59_863" x1="52.7991" y1="0" x2="52.7991" y2="81.5057" gradientUnits="userSpaceOnUse">
<stop offset="0.765625" stop-color="#55287D"/>
<stop offset="1" stop-color="#CD2288"/>
</linearGradient>
</defs>
</svg>
